<svg width="512" height="512" viewBox="0 0 512 512" fill="none" xmlns="http://www.w3.org/2000/svg" xmlns:xlink="http://www.w3.org/1999/xlink" class=""><rect id="«rg»" width="512" height="512" x="0" y="0" rx="128" fill="url(#«rh»)" stroke="#FFFFFF" stroke-width="0" stroke-opacity="100%" paint-order="stroke"></rect><clipPath id="clip"><use xlink:href="#«rg»"></use></clipPath><defs><linearGradient id="«rh»" gradientUnits="userSpaceOnUse" gradientTransform="rotate(180)" style="transform-origin: center center;"><stop stop-color="#FFFFFF"></stop><stop offset="1" stop-color="#FFFFFF"></stop></linearGradient><radialGradient id="«ri»" cx="0" cy="0" r="1" gradientUnits="userSpaceOnUse" gradientTransform="translate(256) rotate(90) scale(512)"><stop stop-color="white"></stop><stop offset="1" stop-color="white" stop-opacity="0"></stop></radialGradient></defs><svg xmlns="http://www.w3.org/2000/svg" fill="none" viewBox="0 0 16 16" width="352" height="352" x="80" y="80" alignment-baseline="middle" style="color: rgb(255, 107, 107);"><path stroke="currentColor" stroke-linecap="round" stroke-linejoin="round" stroke-width="1.5" d="M14.25 8.25V8A6.25 6.25 0 0 0 8 1.75h-.25m6.5 10v2.5M1.75 8c0-1.93.875-3.656 2.25-4.803L4.25 3m7 7.25V8A3.25 3.25 0 0 0 8 4.75h-.25m-6 6.5h1a2 2 0 0 0 2-2v-.5m6.5 4v1.5M8 8.75v1.5a4 4 0 0 1-4 4h-.25m1.5-8h.01"></path></svg></svg>