<svg xmlns="http://www.w3.org/2000/svg" width="512" height="512" fill="none"><rect id="«rg»" width="512" height="512" x="0" y="0" fill="url('#«rh»')" stroke="#FFF" stroke-opacity="100%" stroke-width="0" paint-order="stroke" rx="128"/><defs><linearGradient id="«rh»" gradientTransform="rotate(180)" gradientUnits="userSpaceOnUse" style="transform-origin:50%"><stop stop-color="#FFF"/><stop offset="1" stop-color="#FFF"/></linearGradient></defs><svg xmlns="http://www.w3.org/2000/svg" width="352" height="352" x="80" y="80" alignment-baseline="middle" style="color:#ff6b6b" viewBox="0 0 16 16"><path stroke="currentColor" stroke-linecap="round" stroke-linejoin="round" stroke-width="1.5" d="M14.25 8.25V8A6.25 6.25 0 0 0 8 1.75h-.25m6.5 10v2.5M1.75 8c0-1.93.875-3.656 2.25-4.803L4.25 3m7 7.25V8A3.25 3.25 0 0 0 8 4.75h-.25m-6 6.5h1a2 2 0 0 0 2-2v-.5m6.5 4v1.5M8 8.75v1.5a4 4 0 0 1-4 4h-.25m1.5-8h.01"/></svg></svg>